# xmcd CD database file
#
# Track frame offsets:
#	150
#	16424
#	32214
#	46389
#	70063
#	82891
#	98469
#	115511
#	133966
#	153590
#	164731
#	187753
#	201397
#
# Disc length: 3222 seconds
#
# Revision: 0
# Processed by: cddbd v1.5PL3 Copyright (c) Steve Scherf et al.
# Submitted via: CDex 1.50
#
DISCID=a70c940d
DTITLE=Blues Power - Blues Power
DYEAR=2003
DGENRE=Blues
TTITLE0=Amor
TTITLE1=Pedra Rara
TTITLE2=Verde Vale
TTITLE3=Down The Road
TTITLE4=Preso Da Solidão
TTITLE5=Ficção
TTITLE6=Melhor Esquecer
TTITLE7=Tequila
TTITLE8=Hell's Woman
TTITLE9=Afogado
TTITLE10=Lully
TTITLE11=Tudo Pode Dar Certo
TTITLE12=Sad Night
EXTD=YEAR: 2003
EXTT0=
EXTT1=
EXTT2=
EXTT3=
EXTT4=
EXTT5=
EXTT6=
EXTT7=
EXTT8=
EXTT9=
EXTT10=
EXTT11=
EXTT12=
PLAYORDER=
